<?xml version="1.0" encoding="UTF-8"?>
<svg id="_图层_2" data-name="图层 2" xmlns="http://www.w3.org/2000/svg" viewBox="0 0 76.72 72.54">
  <defs>
    <style>
      .cls-1 {
        fill: #216EEE;
      }
    </style>
  </defs>
  <g id="_图层_1-2" data-name="图层 1">
    <path class="cls-1" d="m76.4,28.68c-.48-2.41-1.93-3.86-3.62-3.86h-.48c-5.3,0-9.4-4.1-9.4-9.4,0-1.69.72-3.62.72-3.62.96-2.17.24-4.58-1.69-6.03L52.3.48c-.72-.24-1.45-.48-2.17-.48-1.45,0-2.89.48-3.86,1.69-.96.96-4.58,4.1-7.47,4.1s-6.51-3.13-7.47-4.34c-.96-.96-2.41-1.45-4.1-1.45-.72,0-1.45.24-1.93.48h-.24l-9.64,5.3c-2.17,1.45-2.89,4.1-1.93,6.03,0,0,.72,1.93.72,3.62,0,5.06-4.34,9.4-9.4,9.4h-.24c-1.69,0-3.13,1.45-3.62,3.86-.24.24-.96,4.34-.96,7.47s.72,7.23.72,7.47c.48,2.41,1.93,3.86,3.61,3.86h.48c5.3,0,9.4,4.1,9.4,9.4,0,1.69-.72,3.62-.72,3.62-.96,2.17-.24,4.58,1.69,6.03l9.4,5.3c.72.24,1.21.48,1.93.48,1.45,0,2.89-.72,3.86-1.69,1.45-1.45,5.06-4.34,7.71-4.34,2.89,0,6.51,3.37,7.71,4.58.96.96,2.41,1.69,3.86,1.69.72,0,1.45-.24,1.93-.48h.24l9.64-5.3c1.93-1.21,2.65-3.86,1.69-6.03,0,0-.72-1.93-.72-3.62,0-5.06,4.34-9.4,9.4-9.4h.24c1.69,0,3.37-1.45,3.62-3.86,0,0,.72-4.1.72-7.47.72-3.37,0-7.47,0-7.71h0Zm-49.65,38.8l-8.44-4.82c.48-.96,1.21-3.13,1.21-5.3,0-7.95-6.03-14.46-13.98-14.94-.24-1.2-.72-4.1-.72-6.27s.48-5.06.72-6.27c7.95-.48,13.98-7.23,13.98-14.94,0-2.17-.72-4.34-1.21-5.3l8.92-4.82c.24.24,1.69,1.69,3.37,2.89,2.89,1.93,5.54,2.89,8.19,2.89,2.41,0,5.3-.96,8.19-3.13,1.69-1.21,3.13-2.41,3.37-2.89l8.68,4.82c-.48.96-1.21,3.13-1.21,5.3,0,7.95,6.03,14.46,13.98,14.94.24,1.21.72,3.86.72,6.27,0,2.17-.48,5.06-.72,6.27-7.95.48-13.98,6.99-13.98,14.94,0,2.17.72,4.34,1.21,5.3l-8.68,4.82c-.48-.48-1.69-1.69-3.37-2.89-2.89-2.17-5.78-3.37-8.44-3.37s-5.3.96-8.44,3.13c-1.93,1.69-3.13,2.89-3.37,3.37h0Zm23.86-31.33c0-6.75-5.3-12.05-12.05-12.05s-12.05,5.3-12.05,12.05,5.3,12.05,12.05,12.05,12.05-5.54,12.05-12.05h0Zm-12.05-7.23c4.1,0,7.23,3.37,7.23,7.23,0,4.1-3.37,7.23-7.23,7.23-4.1,0-7.23-3.37-7.23-7.23,0-4.1,3.13-7.23,7.23-7.23h0Z"/>
  </g>
</svg>