<?xml version="1.0" encoding="UTF-8"?>
<svg id="_图层_2" data-name="图层 2" xmlns="http://www.w3.org/2000/svg" viewBox="0 0 57.54 54.41">
  <defs>
    <style>
      .cls-1 {
        fill: #1d86f3;
      }
    </style>
  </defs>
  <g id="_图层_1-2" data-name="图层 1">
    <path class="cls-1" d="m57.3,21.51c-.36-1.81-1.45-2.89-2.71-2.89h-.36c-3.98,0-7.05-3.07-7.05-7.05,0-1.27.54-2.71.54-2.71.72-1.63.18-3.43-1.27-4.52l-7.23-3.98c-.54-.18-1.08-.36-1.63-.36-1.08,0-2.17.36-2.89,1.27-.72.72-3.43,3.07-5.6,3.07s-4.88-2.35-5.6-3.25c-.72-.72-1.81-1.08-3.07-1.08-.54,0-1.08.18-1.45.36h-.18l-7.23,3.98c-1.63,1.08-2.17,3.07-1.45,4.52,0,0,.54,1.45.54,2.71,0,3.8-3.25,7.05-7.05,7.05h-.18c-1.27,0-2.35,1.08-2.71,2.89-.18.18-.72,3.25-.72,5.6s.54,5.42.54,5.6c.36,1.81,1.45,2.89,2.71,2.89h.36c3.98,0,7.05,3.07,7.05,7.05,0,1.27-.54,2.71-.54,2.71-.72,1.63-.18,3.43,1.27,4.52l7.05,3.98c.54.18.9.36,1.45.36,1.08,0,2.17-.54,2.89-1.27,1.08-1.08,3.8-3.25,5.78-3.25,2.17,0,4.88,2.53,5.78,3.43.72.72,1.81,1.27,2.89,1.27.54,0,1.08-.18,1.45-.36h.18l7.23-3.98c1.45-.9,1.99-2.89,1.27-4.52,0,0-.54-1.45-.54-2.71,0-3.8,3.25-7.05,7.05-7.05h.18c1.27,0,2.53-1.08,2.71-2.89,0,0,.54-3.07.54-5.6.54-2.53,0-5.6,0-5.78h0Zm-37.24,29.1l-6.33-3.62c.36-.72.9-2.35.9-3.98,0-5.96-4.52-10.85-10.48-11.21-.18-.9-.54-3.07-.54-4.7s.36-3.8.54-4.7c5.96-.36,10.48-5.42,10.48-11.21,0-1.63-.54-3.25-.9-3.98l6.69-3.62c.18.18,1.27,1.27,2.53,2.17,2.17,1.45,4.16,2.17,6.15,2.17,1.81,0,3.98-.72,6.15-2.35,1.27-.9,2.35-1.81,2.53-2.17l6.51,3.62c-.36.72-.9,2.35-.9,3.98,0,5.97,4.52,10.85,10.48,11.21.18.9.54,2.89.54,4.7,0,1.63-.36,3.8-.54,4.7-5.97.36-10.48,5.24-10.48,11.21,0,1.63.54,3.25.9,3.98l-6.51,3.62c-.36-.36-1.27-1.27-2.53-2.17-2.17-1.63-4.34-2.53-6.33-2.53s-3.98.72-6.33,2.35c-1.45,1.27-2.35,2.17-2.53,2.53h0Zm17.9-23.5c0-5.06-3.98-9.04-9.04-9.04s-9.04,3.98-9.04,9.04,3.98,9.04,9.04,9.04,9.04-4.16,9.04-9.04h0Zm-9.04-5.42c3.07,0,5.42,2.53,5.42,5.42,0,3.07-2.53,5.42-5.42,5.42-3.07,0-5.42-2.53-5.42-5.42,0-3.07,2.35-5.42,5.42-5.42h0Z"/>
  </g>
</svg>