<?xml version="1.0" encoding="UTF-8"?>
<svg id="_图层_2" data-name="图层 2" xmlns="http://www.w3.org/2000/svg" viewBox="0 0 67.12 76.72">
  <defs>
    <style>
      .cls-1 {
        fill:#216EEE;
      }
    </style>
  </defs>
  <g id="_图层_1-2" data-name="图层 1">
    <path class="cls-1" d="m17.51,41.41s0-.04,0-.06h0s0,0,0,0h0s0,0,0,0c.45-.03,13.57-.88,16.02,12.37h.24c2.27-13.26,15.39-12.61,15.84-12.58h0s0,0,0,0h0,0s0,.05,0,.07c.28,0,.45,0,.49.01h0s0,0,0,0h0,0c-.06.45-1.75,12.68-13.89,13.6l.2,10.6v.1c-.02.38-.02.83.02,1.3.17,1.31.56,2.65,1.21,3.23.15.13.45.4,1.35.26l.93-.18c12.4-2.91,21.07-13.95,20.97-26.83-.03-7.26-2.96-14.21-8.14-19.3-5.2-5.13-12.08-7.94-19.38-7.88-15.07.11-27.24,12.47-27.13,27.57.07,10.92,6.62,20.76,16.68,25.02h.01s0,0,0,0c.65.29,1.16.84,1.4,1.52.24.68.19,1.42-.13,2.06-.06.86-.53,1.64-1.26,2.09-.73.46-1.63.54-2.43.22v.02C8.14,69.38.08,57.3,0,43.89c-.1-13.75,8.1-25.65,19.89-30.94-5.41-5.01-10.65-6.69-10.71-6.71h0c-.7-.24-1.27-.76-1.56-1.43-1-.8-1.3-2.2-.72-3.34C7.48.32,8.79-.25,10.03.1h0c.35.1,8.51,2.72,15.79,10.84,2.46-.59,4.97-.89,7.5-.91,2.72-.02,5.38.32,7.95.93C48.56,2.82,56.73.2,57.08.1h0c1.41-.4,2.88.4,3.32,1.8.33,1.06-.03,2.22-.9,2.92-.29.65-.84,1.18-1.56,1.42h0c-.06.03-5.34,1.75-10.72,6.73,3.68,1.64,7.03,3.92,9.89,6.75,6.38,6.3,9.93,14.72,10,23.7.11,15.81-10.53,29.37-25.88,32.97l-1.15.23c-.46.08-.93.11-1.4.12-2.18,0-3.64-.88-4.55-1.69-3.25-2.94-3.17-8.64-3.13-9.7l-.2-10.53c-11.9-.92-13.74-12.93-13.8-13.36h0s0,0,0,0h0s0,0,0,0c.05,0,.22-.02.49-.02h0Z"/>
  </g>
</svg>