<?xml version="1.0" encoding="UTF-8"?>
<svg id="_图层_2" data-name="图层 2" xmlns="http://www.w3.org/2000/svg" viewBox="0 0 50.34 57.54">
  <defs>
    <style>
      .cls-1 {
        fill: #00b578;
      }
    </style>
  </defs>
  <g id="_图层_1-2" data-name="图层 1">
    <path class="cls-1" d="m13.13,31.06s0-.03,0-.05h0s0,0,0,0h0s0,0,0,0c.34-.02,10.18-.66,12.02,9.28h.18c1.7-9.95,11.54-9.45,11.88-9.43h0s0,0,0,0h0,0s0,.04,0,.05c.21,0,.34,0,.37,0h0s0,0,0,0h0,0c-.04.33-1.31,9.51-10.42,10.2l.15,7.95v.07c-.02.29-.01.62.01.98.13.98.42,1.99.9,2.42.11.1.34.3,1.01.19l.69-.14c9.3-2.18,15.8-10.46,15.73-20.12-.02-5.45-2.22-10.66-6.11-14.47-3.9-3.85-9.06-5.96-14.53-5.91-11.3.08-20.43,9.36-20.35,20.68.05,8.19,4.97,15.57,12.51,18.77h0s0,0,0,0c.49.22.87.63,1.05,1.14.18.51.14,1.06-.1,1.54-.05.64-.4,1.23-.94,1.57-.55.34-1.22.41-1.82.17h0C6.11,52.04.06,42.98,0,32.91-.07,22.6,6.08,13.68,14.92,9.71c-4.06-3.76-7.99-5.02-8.03-5.03h0c-.52-.18-.95-.57-1.17-1.07-.75-.6-.98-1.65-.54-2.51C5.61.24,6.6-.18,7.52.08h0c.26.08,6.38,2.04,11.85,8.13,1.84-.44,3.73-.67,5.62-.68,2.04-.01,4.03.24,5.96.7C36.42,2.12,42.55.15,42.81.07h0c1.06-.3,2.16.3,2.49,1.35.25.8-.02,1.67-.67,2.19-.22.49-.63.88-1.17,1.07h0s-4,1.31-8.04,5.04c2.76,1.23,5.27,2.94,7.42,5.06,4.79,4.73,7.45,11.04,7.5,17.78.08,11.86-7.9,22.03-19.41,24.73l-.86.17c-.35.06-.7.09-1.05.09-1.64,0-2.73-.66-3.41-1.27-2.43-2.2-2.38-6.48-2.34-7.27l-.15-7.89c-8.92-.69-10.31-9.7-10.35-10.02h0s0,0,0,0h0s0,0,0,0c.03,0,.16-.01.37-.01h0Z"/>
  </g>
</svg>