<?xml version="1.0" encoding="UTF-8"?>
<svg id="_图层_2" data-name="图层 2" xmlns="http://www.w3.org/2000/svg" viewBox="0 0 49.42 58">
  <defs>
    <style>
      .cls-1 {
        fill: #1677ff;
      }
    </style>
  </defs>
  <g id="_图层_1-2" data-name="图层 1">
    <g>
      <path class="cls-1" d="m40.07,12.29c.02.56.8.74,1.19.33,2.05-2.2,4.67-5.71,5.12-7.4.53-1.94-.61-3.94-2.55-4.47s-3.94.61-4.47,2.55c-.3,1.12-.15,2.3.16,4.57.16,1.16.51,2.9.55,4.41Z"/>
      <path class="cls-1" d="m24.98,3.66c-.16-.12-.38-.1-.53.02-6.48,5.29-9.94,7.35-14.83,11.07-.22.16-.52.15-.67-.07-2.07-3.05-.66-4.49,1-6.49.57-.69.98-1.23,1.44-2.34.93-2.26-.21-4.94-2.54-5.67-2.26-.7-4.25.75-5.25,2.88-.77,1.64-1.23,4.8-.55,7.96.56,2.61,2.19,4.46,3.02,6.38.18.41.1.88-.18,1.22C1.97,23.26-.48,28.62.08,35.11c1.1,12.85,11.87,22.95,24.77,22.89,13.59-.07,24.58-11.11,24.58-24.71S32.32,9.11,24.98,3.66Zm1.37,44.21c-.76,1.26-2.6,1.25-3.34-.02l-13.64-23.23h7.35c.2,0,.39.11.5.29l7.52,12.82,7.77-12.83c.1-.17.29-.28.49-.28h7.42l-14.08,23.26Z"/>
    </g>
  </g>
</svg>