<?xml version="1.0" encoding="UTF-8"?>
<svg id="_图层_2" data-name="图层 2" xmlns="http://www.w3.org/2000/svg" viewBox="0 0 58 58">
  <defs>
    <style>
      .cls-1 {
        fill: #999;
      }
    </style>
  </defs>
  <g id="_图层_1-2" data-name="图层 1">
    <path class="cls-1" d="m29,0C12.98,0,0,12.98,0,29s12.98,29,29,29,29-12.98,29-29S45.02,0,29,0Zm16.25,47.25l-10.64-.02c-.65,0-1.25-.35-1.56-.92-1.99-3.72-1.39-8.82-1.31-10.01.1-1.56.4-6.39,5.56-7.1-3.42,1.52-4.28,4.58-4.28,6.85,2.24.42,4.92.64,6.95-.19,2.03-.83,3.68-4.7,4.04-5.66.65-1.69.79-1.9,1.4-2.4-.96-.21-2.28-2.29-6.73-2.62-3.19-.23-5.7,1.66-6.99,5.58-.15-2.38-1.43-7.96-7.11-9.31s-7.68-.83-11.75,1.04c.89,1.46.48,4.78,2.59,9.73,1.96,4.59,8.34,5.21,11.37,4.95,1.13-3.15-.75-8.57-4.43-10.78,6.98,1.61,8.42,14.64,4.78,20.05-.33.49-.88.79-1.47.79l-12.94.02c-2.34,0-4.26-1.92-4.26-4.26V15.01c0-2.34,1.92-4.26,4.26-4.26h6.89c.71,0,1.39.25,1.94.69l6.75,5.53c1.15.94,2.82.92,3.95-.05l6.27-5.42c.56-.48,1.27-.75,2-.75h4.69c2.35,0,4.27,1.92,4.27,4.27v27.97c0,2.34-1.92,4.26-4.26,4.26Z"/>
  </g>
</svg>