<?xml version="1.0" encoding="UTF-8"?>
<svg id="_图层_2" data-name="图层 2" xmlns="http://www.w3.org/2000/svg" viewBox="0 0 58 56.16">
  <defs>
    <style>
      .cls-1 {
        fill: #1677ff;
      }
    </style>
  </defs>
  <g id="_图层_1-2" data-name="图层 1">
    <g>
      <path class="cls-1" d="m51.37,26.86v-4.33c0-2.41-1.3-4.62-3.41-5.8l-10.07-5.6c.61-2.7-.04-5.53-1.77-7.7C34.39,1.27,31.77,0,29,0c-2.63,0-5.14,1.14-6.87,3.12s-2.52,4.62-2.16,7.23l-10.23,6.41c-1.93,1.21-3.11,3.33-3.11,5.61v4.47C2.25,28.09-.54,32.37.09,36.88c.63,4.51,4.48,7.86,9.03,7.86s8.4-3.36,9.03-7.86-2.17-8.79-6.55-10.03v-4.47c0-.57.29-1.1.78-1.4l9.62-6.02c1.67,2,4.18,3.27,7,3.27,2.55,0,4.85-1.05,6.51-2.73l10.04,5.58c.53.29.85.85.85,1.45v4.33c-4.38,1.24-7.17,5.52-6.55,10.03.63,4.51,4.48,7.86,9.03,7.86s8.4-3.36,9.03-7.86c.63-4.51-2.17-8.79-6.55-10.03Zm-38.11,8.77c0,2.29-1.85,4.14-4.14,4.14s-4.14-1.85-4.14-4.14,1.85-4.14,4.14-4.14,4.14,1.85,4.14,4.14Zm15.74-22.37c-2.29,0-4.14-1.85-4.14-4.14s1.85-4.14,4.14-4.14,4.14,1.85,4.14,4.14-1.85,4.14-4.14,4.14Z"/>
      <path class="cls-1" d="m20.24,46.69c-1.2-.59-2.65-.12-3.28,1.06-.63,1.18-.22,2.64.93,3.32l7.98,4.3c1.96,1.05,4.32,1.05,6.28,0l7.98-4.3c.82-.4,1.35-1.22,1.39-2.13.04-.91-.42-1.77-1.2-2.24-.78-.47-1.76-.47-2.54,0l-7.98,4.3c-.49.26-1.08.26-1.57,0l-7.98-4.3Z"/>
      <path class="cls-1" d="m48.89,31.48c-2.29,0-4.14,1.85-4.14,4.14s1.85,4.14,4.14,4.14,4.14-1.85,4.14-4.14-1.85-4.14-4.14-4.14h0Z"/>
    </g>
  </g>
</svg>