<?xml version="1.0" encoding="UTF-8"?>
<svg id="_图层_2" data-name="图层 2" xmlns="http://www.w3.org/2000/svg" viewBox="0 0 53.94 52.89">
  <defs>
    <style>
      .cls-1 {
        fill: #1677ff;
      }
    </style>
  </defs>
  <g id="_图层_1-2" data-name="图层 1">
    <g>
      <path class="cls-1" d="m18.9,24.62H5.64c-3.11,0-5.64-2.53-5.64-5.64V5.72C0,2.61,2.53.08,5.64.08h13.25c3.11,0,5.64,2.53,5.64,5.64v13.25c0,3.11-2.53,5.64-5.64,5.64ZM5.64,3.67c-1.13,0-2.05.92-2.05,2.05v13.25c0,1.13.92,2.05,2.05,2.05h13.25c1.13,0,2.05-.92,2.05-2.05V5.72c0-1.13-.92-2.05-2.05-2.05H5.64Z"/>
      <path class="cls-1" d="m18.9,52.53H5.64c-3.11,0-5.64-2.53-5.64-5.64v-13.25c0-3.11,2.53-5.64,5.64-5.64h13.25c3.11,0,5.64,2.53,5.64,5.64v13.25c0,3.11-2.53,5.64-5.64,5.64ZM5.64,31.59c-1.13,0-2.05.92-2.05,2.05v13.25c0,1.13.92,2.05,2.05,2.05h13.25c1.13,0,2.05-.92,2.05-2.05v-13.25c0-1.13-.92-2.05-2.05-2.05H5.64Z"/>
      <path class="cls-1" d="m40.02,27.85c-1.36,0-2.73-.52-3.77-1.56l-8.6-8.6c-2.08-2.08-2.08-5.46,0-7.54L36.25,1.56c2.08-2.08,5.46-2.08,7.53,0l8.6,8.6c1.01,1.01,1.56,2.34,1.56,3.77s-.55,2.76-1.56,3.77l-8.6,8.6c-1.04,1.04-2.4,1.56-3.77,1.56Zm0-24.25c-.44,0-.89.17-1.22.51l-8.6,8.6c-.67.67-.67,1.77,0,2.45l8.6,8.6c.68.68,1.77.68,2.45,0l8.6-8.6c.33-.33.51-.76.51-1.22s-.18-.9-.51-1.22l-8.6-8.6c-.34-.34-.78-.51-1.22-.51Z"/>
      <path class="cls-1" d="m46.64,52.89h-13.25c-3.11,0-5.64-2.53-5.64-5.64v-13.25c0-3.11,2.53-5.64,5.64-5.64h13.25c3.11,0,5.64,2.53,5.64,5.64v13.25c0,3.11-2.53,5.64-5.64,5.64Zm-13.25-20.95c-1.13,0-2.05.92-2.05,2.05v13.25c0,1.13.92,2.05,2.05,2.05h13.25c1.13,0,2.05-.92,2.05-2.05v-13.25c0-1.13-.92-2.05-2.05-2.05h-13.25Z"/>
    </g>
  </g>
</svg>