<?xml version="1.0" encoding="UTF-8"?>
<svg id="_图层_2" data-name="图层 2" xmlns="http://www.w3.org/2000/svg" viewBox="0 0 54 46.63">
  <defs>
    <style>
      .cls-1 {
        fill: #999;
        stroke-width: 0px;
      }
    </style>
  </defs>
  <g id="_图层_1-2" data-name="图层 1">
    <path class="cls-1" d="M52.11,15.6l-12.64-12.65c-1.22-1.22-2.84-1.89-4.56-1.89s-3.34.67-4.56,1.89l-2.81,2.81-3.87-3.87c-1.22-1.22-2.84-1.89-4.56-1.89s-3.34.67-4.56,1.89L1.89,14.54c-2.51,2.52-2.51,6.61,0,9.12l21.07,21.07c1.22,1.22,2.84,1.89,4.56,1.89h.02c1.69,0,3.35-.69,4.55-1.89l20.02-20.02c1.22-1.22,1.89-2.84,1.89-4.56s-.69-3.36-1.89-4.56ZM17.33,4.71c.46-.47,1.11-.73,1.77-.73,0,0,0,0,.02,0,.66,0,1.29.26,1.76.73l3.87,3.87-5.98,5.97c-.54.53-.97,1.15-1.29,1.82-.85,1.72-.85,3.78,0,5.5.32.67.74,1.27,1.27,1.8l2.11,2.11c1.22,1.22,3.18,1.35,4.52.33.25-.15.48-.33.69-.54l7.82-7.83,9.8,9.8-14.4,14.4c-.97.97-2.55.97-3.52,0L4.68,20.86c-.97-.97-.97-2.55,0-3.52l11.81-11.81v.02l.84-.84ZM23.35,22.57l-1.93-1.93c-.17-.17-.3-.36-.4-.54-.29-.65-.28-1.4.01-2.03.1-.19.23-.37.39-.53l8.6-8.6.31-.4,2.8-2.8c.93-.93,2.6-.93,3.52,0l12.65,12.65c.47.47.73,1.09.73,1.76s-.26,1.29-.73,1.76l-2.81,2.81-12.65-12.64-10.49,10.49Z"/>
  </g>
</svg>