<?xml version="1.0" standalone="no"?><!DOCTYPE svg PUBLIC "-//W3C//DTD SVG 1.1//EN" "http://www.w3.org/Graphics/SVG/1.1/DTD/svg11.dtd"><svg t="1721052802196" class="icon" viewBox="0 0 1024 1024" version="1.1" xmlns="http://www.w3.org/2000/svg" p-id="1765" id="mx_n_1721052802197" width="256" height="256" xmlns:xlink="http://www.w3.org/1999/xlink"><path d="M442.823111 932.124444L40.618667 529.863111a113.777778 113.777778 0 0 1 0-160.881778l241.379555-241.436444a113.777778 113.777778 0 0 1 160.938667 0l80.554667 80.497778 60.245333-60.245334a113.777778 113.777778 0 0 1 160.938667 0l241.379555 241.436445a113.777778 113.777778 0 0 1 0 160.938666l-100.579555 100.522667-281.543112 281.6a113.436444 113.436444 0 0 1-80.440888 33.223111 113.777778 113.777778 0 0 1-80.668445-33.393778zM322.161778 167.822222L80.782222 409.258667a56.888889 56.888889 0 0 0 0 80.384l402.261334 402.261333a56.888889 56.888889 0 0 0 80.384 0l281.6-281.543111-200.362667-200.362667L488.675556 566.044444a61.610667 61.610667 0 0 1-11.377778 8.988445 56.888889 56.888889 0 0 1-74.695111-4.949333l-40.220445-40.220445a115.484444 115.484444 0 0 1-22.357333-31.744 108.714667 108.714667 0 0 1 0-96.711111 113.208889 113.208889 0 0 1 22.755555-32.256l120.718223-120.718222-80.554667-80.497778a56.888889 56.888889 0 0 0-40.220444-16.611556 56.888889 56.888889 0 0 0-40.561778 16.725334z m563.2 402.261334l60.245333-60.245334a56.888889 56.888889 0 0 0 0-80.440889l-241.379555-241.436444a56.888889 56.888889 0 0 0-80.554667 0l-60.245333 60.302222 0.853333 0.796445-164.067556 164.124444a49.379556 49.379556 0 0 0-9.102222 12.344889 57.230222 57.230222 0 0 0-0.455111 46.819555 51.2 51.2 0 0 0 9.557333 13.198223l40.220445 40.220444a5.688889 5.688889 0 0 0 4.778666 1.706667l198.656-198.712889z" fill="#216eee" p-id="1766"></path></svg>