<?xml version="1.0" encoding="UTF-8"?>
<svg id="_图层_2" data-name="图层 2" xmlns="http://www.w3.org/2000/svg" viewBox="0 0 51.21 56.97">
  <defs>
    <style>
      .cls-1 {
        fill: #fd6531;
      }

      .cls-2 {
        fill: none;
      }
    </style>
  </defs>
  <g id="_图层_1-2" data-name="图层 1">
    <g>
      <path class="cls-2" d="m25.61,9.41c-10.05,0-18.2,9.22-18.2,20.59s4.41,19.85,18.2,19.85,18.2-8.48,18.2-19.85-8.15-20.59-18.2-20.59Zm-7.88,13.85c-1.33,0-2.41-1.32-2.41-2.94s1.08-2.94,2.41-2.94,2.41,1.32,2.41,2.94-1.08,2.94-2.41,2.94Zm12.69,3.41l-4.8,3.02-4.8-3.02,4.8-3.02,4.8,3.02Zm3.08-3.41c-1.33,0-2.41-1.32-2.41-2.94s1.08-2.94,2.41-2.94,2.41,1.32,2.41,2.94-1.08,2.94-2.41,2.94Z"/>
      <path class="cls-1" d="m47.32,25.75c-1.44-9.05-7.37-16.4-15.15-19.09.72-2.61-.83-5.78-3.84-4.35-.4.19-.89.07-1.13-.3-3.15-4.8-9.3.05-5.65,3.97C12.56,7.84,5.48,15.76,3.89,25.75c-1.46,2.88-9.6,20.05,3.22,19.12.38.6.78,1.18,1.21,1.72,2.02,2.53,4.64,4.39,7.82,5.57l-.27,2.7s-1.16.02-1.18,1.39v.71h6.45s.45-1.76-.88-2.06c0-.65.01-1.18.03-1.64,1.66.29,3.43.43,5.31.43s3.66-.15,5.31-.43c.02.45.03.99.03,1.64-1.33.31-.88,2.06-.88,2.06h6.45v-.71c-.02-1.37-1.18-1.39-1.18-1.39l-.27-2.7c3.18-1.18,5.8-3.04,7.82-5.57.43-.54.83-1.12,1.21-1.72,12.83.93,4.68-16.23,3.22-19.12Zm-21.72,24.1c-13.79,0-18.2-8.48-18.2-19.85S15.56,9.41,25.61,9.41s18.2,9.22,18.2,20.59-4.41,19.85-18.2,19.85Z"/>
      <ellipse class="cls-1" cx="17.73" cy="20.32" rx="2.41" ry="2.94"/>
      <ellipse class="cls-1" cx="33.49" cy="20.32" rx="2.41" ry="2.94"/>
      <path class="cls-1" d="m29.92,26.36l-4.13-2.59c-.12-.07-.27-.07-.38,0l-4.13,2.59c-.23.14-.23.47,0,.61l4.13,2.59c.12.07.27.07.38,0l4.13-2.59c.23-.14.23-.47,0-.61Z"/>
    </g>
  </g>
</svg>