<?xml version="1.0" encoding="UTF-8"?>
<svg id="_图层_2" data-name="图层 2" xmlns="http://www.w3.org/2000/svg" viewBox="0 0 68.28 75.97">
  <defs>
    <style>
      .cls-1 {
        fill: none;
      }

      .cls-2 {
        fill: #216EEE;
      }
    </style>
  </defs>
  <g id="_图层_1-2" data-name="图层 1">
    <g>
      <path class="cls-1" d="m34.14,12.55c-13.4,0-24.26,12.29-24.26,27.45s5.88,26.47,24.26,26.47,24.26-11.31,24.26-26.47-10.86-27.45-24.26-27.45Zm-10.51,18.46c-1.77,0-3.21-1.76-3.21-3.92s1.44-3.92,3.21-3.92,3.21,1.76,3.21,3.92-1.44,3.92-3.21,3.92Zm16.91,4.55l-6.41,4.02-6.41-4.02,6.41-4.02,6.41,4.02Zm4.1-4.55c-1.77,0-3.21-1.76-3.21-3.92s1.44-3.92,3.21-3.92,3.21,1.76,3.21,3.92-1.44,3.92-3.21,3.92Z"/>
      <path class="cls-2" d="m63.1,34.33c-1.92-12.07-9.83-21.87-20.2-25.46.96-3.48-1.1-7.71-5.13-5.81-.54.25-1.18.1-1.51-.4-4.21-6.4-12.4.07-7.54,5.3-11.98,2.49-21.42,13.04-23.53,26.37-1.94,3.85-12.81,26.74,4.3,25.49.5.8,1.03,1.57,1.61,2.3,2.7,3.38,6.19,5.85,10.42,7.43l-.36,3.61s-1.55.03-1.58,1.85v.95h8.6s.6-2.34-1.17-2.75c0-.86.02-1.58.04-2.18,2.21.38,4.57.58,7.08.58s4.88-.19,7.08-.58c.03.6.04,1.32.04,2.18-1.77.41-1.17,2.75-1.17,2.75h8.6v-.95c-.03-1.82-1.58-1.85-1.58-1.85l-.36-3.61c4.24-1.58,7.73-4.05,10.42-7.43.58-.72,1.11-1.49,1.61-2.3,17.1,1.24,6.24-21.65,4.3-25.49Zm-28.96,32.13c-18.38,0-24.26-11.31-24.26-26.47s10.86-27.45,24.26-27.45,24.26,12.29,24.26,27.45-5.88,26.47-24.26,26.47Z"/>
      <ellipse class="cls-2" cx="23.63" cy="27.09" rx="3.21" ry="3.92"/>
      <ellipse class="cls-2" cx="44.65" cy="27.09" rx="3.21" ry="3.92"/>
      <path class="cls-2" d="m39.9,35.15l-5.5-3.45c-.16-.1-.36-.1-.51,0l-5.5,3.45c-.3.19-.3.63,0,.82l5.5,3.45c.16.1.36.1.51,0l5.5-3.45c.3-.19.3-.63,0-.82Z"/>
    </g>
  </g>
</svg>