<?xml version="1.0" encoding="UTF-8"?>
<svg id="_图层_2" data-name="图层 2" xmlns="http://www.w3.org/2000/svg" viewBox="0 0 69.77 77.33">
  <defs>
    <style>
      .cls-1 {
        fill:#216EEE;
      }
    </style>
  </defs>
  <g id="_图层_1-2" data-name="图层 1">
    <g>
      <g>
        <path class="cls-1" d="m38.19,58.44c.47-1.22.84-2.49,1.12-3.77.2-1.27.28-2.62-.01-4.01-.07-.31-.4-.5-.71-.41l-1.38.41c-.27.08-.42.34-.39.61.56,4.2-2.04,9.72-5.58,11.85,0,0,.01.03.01.03-3.9,2.03-8.07,3.09-12.09,2.02-.26-.07-.52.04-.64.28l-1.19,2.41c-.15.3,0,.68.31.78,1.33.44,2.6.52,3.99.51,9.53-.41,16.88-7.18,23.25-13.59.22-.22.21-.59-.02-.8l-.99-.92c-.22-.21-.56-.2-.78.01-1.44,1.48-3.1,3.06-4.91,4.57Z"/>
        <path class="cls-1" d="m57.78,46.4c-.26-.06-3.85-.08-6.32.9-2.47.98-6.61,4.99-6.35,5.83.3.95,4.02,1.53,7.54-.13,3.92-1.85,5.38-6.54,5.12-6.6Z"/>
        <path class="cls-1" d="m37.77,48.28c4.17-5.05,9.9-12.64,9.27-18.32-.56-5.06-3.95-6.71-6.93-8.17-.2-.1-.39-.19-.59-.29-.97-.3-1.71.12-2.59.43-.72.26-1.13.51-1.4.88-2.27,3.09-4.76,14.05,1.21,25.37.21.39.75.44,1.03.1Z"/>
        <path class="cls-1" d="m11.29,38.64s.04.02.06.03c1.23-.69,2.4-1.25,3.71-1.39.36-.04.62-.38.55-.73-.41-1.88-.28-3.67.07-5.22.08-.34-.12-.67-.46-.76-1.99-.48-5.79.94-6.07,1.45-.41.74,1.24,6.37,2.14,6.62Z"/>
        <path class="cls-1" d="m31.39,51.87c1.25-.29,2.42-.62,3.5-.95.38-.12.54-.55.35-.9-.03-.06-.07-.12-.1-.18-.09-.15-.23-.26-.41-.3-9.57-2.03-15.66-5.48-18.14-10.28l-.03-.03c-1.64-.35-2.91.66-4.8,1.74-.28.16-2.2,1.78-3.03,2.39-1.23.9,2.46,1.55,4.37,2.27,1.91.72,12,7.71,18.29,6.24Z"/>
        <path class="cls-1" d="m47.5,24.71c.17.25.47.36.75.25,1.31-.53,3.46-1.26,5.77-1.45-1.48-1.32-3.09-2.82-3.77-4.24-1.55-3.27-6.86,1.31-6.86,1.31,0,0-.22.04-.58.11,1.67.91,3.42,2.11,4.68,4.02Z"/>
        <path class="cls-1" d="m48.85,27.71c.17.62.3,1.28.38,2.01.69,6.22-4.79,13.87-9.11,19.18-.06.07.03.15.12.13.92-.27,1.2-.44,1.83-.68.69-.27,5.74-1.69,8.64-6.35,3.1-4.98,4.78-13.97,6.17-14.87.39-.25.16-.71-.39-1.33-2.63-.45-5.64.51-7.28,1.17-.3.12-.44.44-.36.75Z"/>
        <path class="cls-1" d="m32.55,46.76c.49.13.92-.36.73-.82-2.05-5.11-2.64-10.14-2.4-14.4.04-.67-.41-1.24-1.05-1.43-1.66-.49-2.95-1.54-3.92-2.7-.16-.2-.42-.28-.66-.2-1.55.49-4.57,1.36-5.22,1.79-.53.35-1.33,2.08-2.16,3.05-.07.08-.12.18-.14.29-.29,1.59-.27,3.41.49,5.24,1.68,4.03,6.59,7.16,14.33,9.19Z"/>
        <path class="cls-1" d="m30.62,28.04c.35.09.7-.14.77-.49.39-1.9.94-3.54,1.6-4.8-1.77-.2-3.5-.58-4.46-.21-.78.3-1.27,1.16-1.6,2.04-.07.18-.05.38.05.54.77,1.21,1.95,2.47,3.64,2.91Z"/>
      </g>
      <path class="cls-1" d="m64.55,15.52L40.1,1.4c-3.23-1.86-7.2-1.86-10.43,0L5.21,15.52c-3.23,1.86-5.21,5.31-5.21,9.03v28.24c0,3.73,1.99,7.17,5.21,9.03l24.46,14.12c3.23,1.86,7.2,1.86,10.43,0l24.46-14.12c3.23-1.86,5.21-5.31,5.21-9.03v-28.24c0-3.73-1.99-7.17-5.21-9.03Zm-29.67,53.84c-16.95,0-30.69-13.74-30.69-30.69S17.94,7.98,34.88,7.98s30.69,13.74,30.69,30.69-13.74,30.69-30.69,30.69Z"/>
    </g>
  </g>
</svg>