<?xml version="1.0" encoding="UTF-8"?>
<svg id="_图层_2" data-name="图层 2" xmlns="http://www.w3.org/2000/svg" viewBox="0 0 58 58.83">
  <defs>
    <style>
      .cls-1 {
        fill: none;
      }

      .cls-2 {
        fill: #0bb865;
      }
    </style>
  </defs>
  <g id="_图层_1-2" data-name="图层 1">
    <g>
      <path class="cls-2" d="m18.06,40.75s-11.69,2.32-16.01-6.57C-2.27,25.3-.05,15.71,11.57,12.03c1.08-12.82,22.09-18.86,27.68-.25,13.01.63,20.19,29.27-4.06,28.76,0,0,2.19-5.08.12-4.6-.93.21-2.12.29-2.07-2.71-4.4,2.88-10.21,4.62-14.02-1.19.3,1.9,1.14,4.01-1.62,5.24-2.26,1.01.46,3.49.46,3.49Z"/>
      <polygon class="cls-2" points="31.28 45.07 39.21 37.14 37.33 35.26 30.47 42.12 28.04 42.12 28.04 32.31 24.95 32.31 24.95 42.12 22.69 42.12 16.5 34.66 14.18 36.59 21.52 45.44 21.52 56.79 19.45 58.64 21.52 58.64 31.28 58.64 33.35 58.64 31.28 56.79 31.28 45.07"/>
      <rect class="cls-1" x="40.95" y="47.05" width="4.15" height="4.15"/>
      <rect class="cls-1" x="40.95" y="52.24" width="4.15" height="4.15"/>
      <rect class="cls-1" x="46.4" y="52.24" width="4.15" height="4.15"/>
      <rect class="cls-1" x="46.4" y="47.05" width="4.15" height="4.15"/>
      <path class="cls-2" d="m57.73,44.5l-6.38-5.82c-.32-.29-1.09.11-1.42.35s-1.99,2.37-6.92,3.87c-3.27.95-5.7.92-6.27.99s-.93.38-.93,1.02v12.76c0,.64.52,1.17,1.17,1.17h16.86c.64,0,1.17-.52,1.17-1.17v-9.74c.33.18.79.23,1.26-.38.5-.65,1.12-1.39,1.55-1.89.29-.34.26-.85-.07-1.15Zm-12.63,11.89h-4.15v-4.15h4.15v4.15Zm0-5.19h-4.15v-4.15h4.15v4.15Zm5.45,5.19h-4.15v-4.15h4.15v4.15Zm0-5.19h-4.15v-4.15h4.15v4.15Z"/>
    </g>
  </g>
</svg>