<?xml version="1.0" encoding="UTF-8"?>
<svg id="_图层_2" data-name="图层 2" xmlns="http://www.w3.org/2000/svg" viewBox="0 0 77.33 78.44">
  <defs>
    <style>
      .cls-1 {
        fill: #216EEE;
      }

      .cls-2 {
        fill:#216EEE;
      }
    </style>
  </defs>
  <g id="_图层_1-2" data-name="图层 1">
    <g>
      <path class="cls-2" d="m24.07,54.33s-15.59,3.09-21.35-8.76S-.07,20.95,15.42,16.04c1.44-17.1,29.46-25.14,36.91-.34,17.35.85,26.92,39.02-5.42,38.35,0,0,2.92-6.77.16-6.14-1.24.29-2.83.38-2.76-3.62-5.87,3.84-13.62,6.16-18.7-1.59.4,2.53,1.52,5.35-2.16,6.98-3.01,1.34.62,4.65.62,4.65Z"/>
      <polygon class="cls-2" points="41.71 60.1 52.29 49.52 49.78 47.01 40.63 56.16 37.39 56.16 37.39 43.08 33.26 43.08 33.26 56.16 30.26 56.16 22.01 46.21 18.9 48.79 28.69 60.59 28.69 75.72 25.93 78.19 28.69 78.19 41.71 78.19 44.46 78.19 41.71 75.72 41.71 60.1"/>
      <g>
        <rect class="cls-1" x="54.59" y="62.73" width="5.54" height="5.54"/>
        <rect class="cls-1" x="54.59" y="69.65" width="5.54" height="5.54"/>
        <rect class="cls-1" x="61.86" y="69.65" width="5.54" height="5.54"/>
        <rect class="cls-1" x="61.86" y="62.73" width="5.54" height="5.54"/>
        <path class="cls-2" d="m76.97,59.34l-8.51-7.76c-.43-.39-1.45.14-1.89.46s-2.66,3.15-9.23,5.15c-4.36,1.27-7.6,1.22-8.36,1.32s-1.24.51-1.24,1.37v17.01c0,.86.7,1.56,1.56,1.56h22.47c.86,0,1.56-.7,1.56-1.56v-12.99c.44.24,1.06.31,1.68-.5.66-.87,1.49-1.85,2.06-2.53.39-.45.34-1.13-.1-1.53Zm-16.84,15.85h-5.54v-5.54h5.54v5.54Zm0-6.92h-5.54v-5.54h5.54v5.54Zm7.27,6.92h-5.54v-5.54h5.54v5.54Zm0-6.92h-5.54v-5.54h5.54v5.54Z"/>
      </g>
    </g>
  </g>
</svg>