<?xml version="1.0" encoding="UTF-8"?>
<svg id="_图层_2" data-name="图层 2" xmlns="http://www.w3.org/2000/svg" viewBox="0 0 58 58.83">
  <defs>
    <style>
      .cls-1 {
        fill: #999;
      }
    </style>
  </defs>
  <g id="_图层_1-2" data-name="图层 1">
    <g>
      <path class="cls-1" d="m31.28,45.07l4.55-4.55c23.45-.03,16.31-28.12,3.42-28.75-5.59-18.6-26.6-12.57-27.68.25C-.05,15.71-2.27,25.3,2.04,34.18c3.86,7.95,13.62,6.93,15.64,6.63l3.84,4.63v11.35l-2.07,1.85h13.9l-2.07-1.85v-11.72Zm-6.33-2.95h-2.25l-4.37-5.27c1.85-1.25,1.16-3.13.88-4.83,1.63,2.49,3.64,3.59,5.74,3.81v6.29Zm5.53,0h-2.43v-6.53c1.81-.44,3.59-1.33,5.19-2.37-.05,3,1.14,2.93,2.07,2.71.51-.12.76.11.85.51l-5.68,5.68Z"/>
      <path class="cls-1" d="m57.73,44.5l-6.38-5.82c-.32-.29-1.09.11-1.42.35-.33.24-1.99,2.37-6.92,3.87-3.27.95-5.7.92-6.27.99-.57.07-.93.38-.93,1.02v12.76c0,.64.52,1.17,1.17,1.17h16.86c.64,0,1.17-.52,1.17-1.17v-9.74c.33.18.79.23,1.26-.38.5-.65,1.12-1.39,1.55-1.89.29-.34.26-.85-.07-1.15Zm-12.63,11.89h-4.15v-4.15h4.15v4.15Zm0-5.19h-4.15v-4.15h4.15v4.15Zm5.45,5.19h-4.15v-4.15h4.15v4.15Zm0-5.19h-4.15v-4.15h4.15v4.15Z"/>
    </g>
  </g>
</svg>