<?xml version="1.0" encoding="UTF-8"?>
<svg id="_图层_2" data-name="图层 2" xmlns="http://www.w3.org/2000/svg" viewBox="0 0 52.33 58">
  <defs>
    <style>
      .cls-1 {
        fill: #f6910d;
      }

      .cls-2 {
        fill: #fec006;
      }
    </style>
  </defs>
  <g id="_图层_1-2" data-name="图层 1">
    <g>
      <g>
        <path class="cls-2" d="m32.9,40.4c-.17-.16-.42-.15-.58.01-1.08,1.11-2.32,2.3-3.68,3.43.35-.92.63-1.87.84-2.83.15-.96.21-1.97,0-3-.05-.24-.3-.38-.53-.31l-1.03.31c-.2.06-.32.25-.29.46.42,3.15-1.53,7.29-4.19,8.89,0,0,0,.02.01.03-2.92,1.52-6.05,2.32-9.07,1.52-.19-.05-.39.03-.48.21l-.9,1.81c-.11.23,0,.51.24.59,1,.33,1.95.39,2.99.39,7.15-.31,12.66-5.39,17.44-10.19.17-.17.16-.44-.01-.6l-.74-.69Z"/>
        <path class="cls-2" d="m43.33,34.8c-.2-.04-2.89-.06-4.74.68-1.85.74-4.96,3.75-4.76,4.37.22.72,3.01,1.15,5.66-.1,2.94-1.39,4.04-4.9,3.84-4.95Z"/>
        <path class="cls-2" d="m28.33,36.21c3.13-3.78,7.42-9.48,6.95-13.74-.42-3.79-2.96-5.03-5.2-6.13-.15-.07-.29-.15-.44-.22-.72-.22-1.28.09-1.94.32-.54.19-.85.38-1.05.66-1.7,2.31-3.57,10.54.9,19.03.15.29.56.33.77.08Z"/>
        <path class="cls-2" d="m8.47,28.98s.03.02.04.02c.92-.52,1.8-.94,2.78-1.05.27-.03.47-.28.41-.55-.31-1.41-.21-2.75.05-3.91.06-.25-.09-.51-.34-.57-1.49-.36-4.34.71-4.55,1.09-.31.55.93,4.78,1.61,4.96Z"/>
        <path class="cls-2" d="m23.54,38.9c.94-.22,1.82-.46,2.63-.71.28-.09.4-.41.26-.67-.03-.05-.05-.09-.08-.14-.06-.12-.18-.2-.31-.23-7.18-1.53-11.75-4.11-13.6-7.71l-.02-.03c-1.23-.26-2.18.5-3.6,1.31-.21.12-1.65,1.34-2.27,1.79-.92.67,1.85,1.16,3.28,1.71,1.43.54,9,5.78,13.72,4.68Z"/>
        <path class="cls-2" d="m35.63,18.53c.12.19.35.27.56.19.98-.4,2.59-.95,4.33-1.08-1.11-.99-2.32-2.11-2.83-3.18-1.16-2.45-5.15.98-5.15.98,0,0-.17.03-.43.08,1.25.68,2.57,1.58,3.51,3.01Z"/>
        <path class="cls-2" d="m36.64,20.78c.13.46.23.96.29,1.51.52,4.66-3.59,10.4-6.83,14.38-.04.05.02.11.09.09.69-.2.9-.33,1.37-.51.51-.2,4.31-1.27,6.48-4.76,2.33-3.74,3.58-10.48,4.63-11.15.29-.19.12-.54-.29-.99-1.97-.34-4.23.39-5.46.88-.22.09-.33.33-.27.56Z"/>
        <path class="cls-2" d="m24.42,35.07c.36.1.69-.27.55-.62-1.53-3.83-1.98-7.61-1.8-10.8.03-.5-.31-.93-.79-1.07-1.24-.37-2.22-1.15-2.94-2.03-.12-.15-.31-.21-.5-.15-1.16.37-3.42,1.02-3.92,1.34-.4.27-1,1.56-1.62,2.29-.05.06-.09.13-.1.21-.22,1.19-.2,2.56.37,3.93,1.26,3.03,4.94,5.37,10.74,6.89Z"/>
        <path class="cls-2" d="m22.97,21.03c.26.07.52-.1.58-.37.29-1.43.71-2.66,1.2-3.6-1.33-.15-2.62-.43-3.35-.16-.58.22-.95.87-1.2,1.53-.05.13-.04.29.04.41.58.91,1.46,1.85,2.73,2.19Z"/>
      </g>
      <path class="cls-1" d="m48.41,11.64L30.07,1.05c-2.42-1.4-5.4-1.4-7.82,0L3.91,11.64c-2.42,1.4-3.91,3.98-3.91,6.77v21.18c0,2.79,1.49,5.38,3.91,6.77l18.34,10.59c2.42,1.4,5.4,1.4,7.82,0l18.34-10.59c2.42-1.4,3.91-3.98,3.91-6.77v-21.18c0-2.79-1.49-5.38-3.91-6.77Zm-22.25,40.38c-12.71,0-23.01-10.3-23.01-23.02S13.45,5.99,26.16,5.99s23.02,10.3,23.02,23.01-10.3,23.02-23.02,23.02Z"/>
    </g>
  </g>
</svg>