<?xml version="1.0" encoding="UTF-8"?>
<svg id="_图层_2" data-name="图层 2" xmlns="http://www.w3.org/2000/svg" viewBox="0 0 77.33 69.95">
  <defs>
    <style>
      .cls-1 {
        fill: #216EEE;
      }
    </style>
  </defs>
  <g id="_图层_1-2" data-name="图层 1">
    <g>
      <path class="cls-1" d="m1.78,62.11l18.94-10.95,6.62-10.23c.59,1.64,1.79,2.98,3.35,3.75l2.92,1.43-6.65,10.35c-.34.52-.79.96-1.32,1.28l-19.79,11.43c-1.91.96-4.24.27-5.31-1.58-1.07-1.85-.51-4.22,1.27-5.39l-.04-.08Z"/>
      <path class="cls-1" d="m60.33,18.8c-5.19,0-9.4-4.21-9.4-9.4S55.14,0,60.33,0s9.4,4.21,9.4,9.4c0,2.49-.99,4.88-2.75,6.65-1.76,1.76-4.15,2.75-6.65,2.75h0Z"/>
      <path class="cls-1" d="m55.83,27.89c1.51-1.35,2.33-3.32,2.24-5.34l4.35,2.92,8.14-8.9c1.54-1.42,3.91-1.43,5.46-.02,1.55,1.41,1.76,3.78.48,5.44l-10.48,11.47c-1.34,1.47-3.57,1.74-5.22.62l-6.79-4.56,1.82-1.64Z"/>
      <path class="cls-1" d="m47.49,49.88l-15.63-7.6c-1.2-.59-2.03-1.74-2.21-3.07-.18-1.33.31-2.66,1.3-3.55l13.83-12.3-8.28-5.47-12.07,3.46c-2.07.44-4.13-.8-4.71-2.84-.58-2.04.51-4.18,2.5-4.9l13.85-3.95c1.13-.33,2.35-.14,3.33.52l14.16,9.38c1.03.69,1.69,1.82,1.78,3.07.09,1.24-.4,2.46-1.33,3.29l-13.25,11.78,14.2,6.92c1.02.5,1.78,1.41,2.09,2.5.32,1.09.16,2.27-.44,3.23l-10.75,17.39c-.68,1.35-2.05,2.21-3.57,2.22-1.51.01-2.9-.83-3.6-2.17-.69-1.34-.57-2.96.31-4.19l8.47-13.71Z"/>
    </g>
  </g>
</svg>