<?xml version="1.0" encoding="UTF-8"?>
<svg id="_图层_2" data-name="图层 2" xmlns="http://www.w3.org/2000/svg" viewBox="0 0 59.25 58">
  <defs>
    <style>
      .cls-1 {
        fill: #1677ff;
      }
    </style>
  </defs>
  <g id="_图层_1-2" data-name="图层 1">
    <g>
      <path class="cls-1" d="m58.12,36.62v-.04c.14-.48.27-.96.38-1.45v-.08c.11-.48.21-.96.3-1.45v-.09c.08-.49.16-.98.22-1.48,0-.03,0-.06,0-.08.06-.51.11-1.02.15-1.53,0-.02,0-.04,0-.05.05-.68.08-1.36.08-2.05C58.52,12.47,45.48,0,29.62,0S.72,12.47,0,28.3c0,.97.05,1.92.14,2.87.04.39.09.78.14,1.17,0,.08,0,.17.03.26.05.35.11.71.18,1.06l.07.36c.06.33.14.66.21.99l.09.4c.08.31.16.63.25.94l.12.44c.09.3.19.6.29.89.05.15.1.29.15.44.1.29.21.58.32.89l.17.44c.11.28.23.56.35.84l.2.44c.13.27.26.54.39.81l.22.44c.14.27.28.53.44.79l.24.42c.15.26.3.51.44.77l.26.41c.16.25.33.5.5.74.09.13.18.26.27.39.18.25.35.49.54.73l.27.35c.19.24.39.49.58.73l.24.28c.22.26.44.51.66.76l.02.02c.58.64,1.2,1.25,1.83,1.84l.04.04c.21.19.44.38.65.57l.39.34c.2.17.4.32.61.49l.48.38.59.44.53.38.6.39c.19.12.38.25.57.36l.6.36.6.35c.2.11.4.22.61.32.2.11.42.22.63.32l.62.3.66.3.62.26.69.27.62.23c.24.08.47.16.71.24.24.07.42.14.63.2.21.06.49.15.74.21l.63.17.77.18.63.14c.27.05.54.1.81.14.2.04.41.08.61.1.29.04.58.08.88.11.19.02.39.05.58.07.32.03.65.05.97.08l.49.04c.49.02.99.04,1.48.04.41,0,.81,0,1.22-.03l.53-.02c6.58-.38,12.83-2.95,17.78-7.29,4.25-3.73,7.34-8.6,8.91-14.04h0Zm-28.29,17.8c-1.13-1.82-2.53-3.47-4.16-4.87-6.2-5.75-12.52-6.64-12.52-10.03s9.42-7.23,12.07-7.67c2.66-.44-.41-1.28-.41-1.28-1.32-.4-2.66-.73-4.01-.97v-1.65l3.1-.07-1.95-3.54h1.06l-1.77-3.1h.88l-2.21-3.98-2.21,3.98h.89l-1.77,3.1h1.06l-1.95,3.54,3.1.07v1.37c-2.55-.33-5.12-.42-7.68-.27v-1.46l2.1-.05-1.41-2.54h.77l-1.27-2.21h.64l-1.47-2.88-1.46,2.86h.63l-1.27,2.21h.76l-1.4,2.56,2.1.05v1.55c-2.17.19-4.33.53-6.45,1.04-.04-.62-.08-1.24-.08-1.87C3.54,13.88,15.23,2.19,29.65,2.19s26.11,11.69,26.11,26.11v.04c-1.85-.15-4.37-.29-7.52-.29-.58,0-1.23,0-1.93.06v-1.41l2.1-.05-1.4-2.54h.77l-1.27-2.21h.64l-1.46-2.88-1.47,2.86h.63l-1.27,2.21h.76l-1.4,2.56,2.1.05v1.49c-1.95.16-4.21.44-6.52.85v-1.54l3.1-.08-1.95-3.54h1.06l-1.77-3.1h.89l-2.21-3.98-2.21,3.98h.88l-1.77,3.1h1.06l-1.95,3.54,3.1.08v1.89c-6.91,1.42-13.72,3.98-13.72,7.78,0,0,.51,3.54,9.55,5.75,3.84.94,8.76,3.24,13.35,5.8-4.57,3.66-10.23,5.67-16.08,5.71h0Z"/>
      <path class="cls-1" d="m33.64,12.63l.92-.31c-1.02-2.03,2.62-5.66,2.62-5.66-3.47,1.46-3.95,4.37-3.95,4.37-.81-.76-2.21-.76-2.21-.76-3.05,0-3.54,1.52-3.54,1.52,4.03-1.5,6.16.83,6.16.83h0Zm6.87,1.06l.44-.14c-.44-.93,1.2-2.58,1.2-2.58-.89.33-1.57,1.07-1.8,2-.29-.22-.65-.34-1.02-.35-1.39,0-1.62.69-1.62.69,1.83-.69,2.8.37,2.8.37h0Zm-8.1,2.66c-.2-.15-.44-.23-.69-.23-.95,0-1.11.47-1.11.47,1.27-.47,1.93.25,1.93.25l.28-.09c-.31-.63.82-1.77.82-1.77-.61.22-1.07.74-1.23,1.37h0Z"/>
    </g>
  </g>
</svg>