<?xml version="1.0" encoding="UTF-8"?>
<svg id="_图层_2" data-name="图层 2" xmlns="http://www.w3.org/2000/svg" viewBox="0 0 71.93 70.52">
  <defs>
    <style>
      .cls-1 {
        fill: #216EEE;
      }
    </style>
  </defs>
  <g id="_图层_1-2" data-name="图层 1">
    <g>
      <path class="cls-1" d="m25.2,32.82H7.53c-4.15,0-7.53-3.38-7.53-7.52V7.63C0,3.48,3.38.1,7.53.1h17.67c4.15,0,7.53,3.38,7.53,7.52v17.67c0,4.15-3.38,7.52-7.53,7.52ZM7.53,4.9c-1.51,0-2.73,1.23-2.73,2.73v17.67c0,1.51,1.23,2.73,2.73,2.73h17.67c1.51,0,2.73-1.23,2.73-2.73V7.63c0-1.51-1.23-2.73-2.73-2.73H7.53Z"/>
      <path class="cls-1" d="m25.2,70.05H7.53c-4.15,0-7.53-3.38-7.53-7.53v-17.67c0-4.15,3.38-7.53,7.53-7.53h17.67c4.15,0,7.53,3.38,7.53,7.53v17.67c0,4.15-3.38,7.53-7.53,7.53ZM7.53,42.12c-1.51,0-2.73,1.23-2.73,2.73v17.67c0,1.51,1.23,2.73,2.73,2.73h17.67c1.51,0,2.73-1.23,2.73-2.73v-17.67c0-1.51-1.23-2.73-2.73-2.73H7.53Z"/>
      <path class="cls-1" d="m53.36,37.13c-1.82,0-3.64-.69-5.02-2.08l-11.46-11.46c-2.77-2.77-2.77-7.28,0-10.05l11.46-11.46c2.77-2.77,7.27-2.77,10.05,0l11.46,11.46c1.34,1.34,2.08,3.13,2.08,5.02s-.74,3.68-2.08,5.02l-11.46,11.46c-1.39,1.39-3.2,2.08-5.02,2.08Zm0-32.34c-.59,0-1.18.22-1.63.67l-11.46,11.46c-.9.9-.9,2.37,0,3.27l11.46,11.46c.9.9,2.36.9,3.26,0l11.46-11.46c.44-.44.68-1.02.68-1.63s-.24-1.2-.68-1.63l-11.46-11.46c-.45-.45-1.04-.67-1.63-.67Z"/>
      <path class="cls-1" d="m62.19,70.52h-17.67c-4.15,0-7.53-3.38-7.53-7.53v-17.67c0-4.15,3.38-7.53,7.53-7.53h17.67c4.15,0,7.53,3.38,7.53,7.53v17.67c0,4.15-3.38,7.53-7.53,7.53Zm-17.67-27.93c-1.51,0-2.73,1.23-2.73,2.73v17.67c0,1.51,1.23,2.73,2.73,2.73h17.67c1.51,0,2.73-1.23,2.73-2.73v-17.67c0-1.51-1.23-2.73-2.73-2.73h-17.67Z"/>
    </g>
  </g>
</svg>