<?xml version="1.0" encoding="UTF-8"?>
<svg id="_图层_2" data-name="图层 2" xmlns="http://www.w3.org/2000/svg" viewBox="0 0 58 58">
  <defs>
    <style>
      .cls-1 {
        fill: #1677ff;
      }
    </style>
  </defs>
  <g id="_图层_1-2" data-name="图层 1">
    <g>
      <g>
        <path class="cls-1" d="m33.53,43.53c-.11-2.49,3.38-10.96,5.96-18.22,1.36.5,2.83.77,4.34.77,6.24,0,11.27-4.45,11.27-9.92.01-4.98-4.17-9.11-9.61-9.82-1.64-3.71-5.72-6.35-10.52-6.35s-8.85,2.62-10.51,6.31c-5.61.58-9.97,4.77-9.97,9.86,0,5.49,5.05,9.92,11.27,9.92,2.6,0,4.99-.78,6.9-2.08-1.67,3.2-4.68,8.08-10.12,15.42-5.64,9.22,4.84,18.57,4.84,18.57h21.27s-15.96-4.26-15.15-14.47Z"/>
        <path class="cls-1" d="m11.6,36.6c1.12,5.81,6.61,4.25,7.57,3.26.97-.85,5.96-9.36,9.03-11.62-8.7,1.42-14.51-5.67-14.51-5.67-4.51,0-5.31,1.98-5.32,2.84-1.45.14-6.93.99-8.14,6.45-1.21,5.46,2.35,7.3,11.37,4.75Z"/>
        <path class="cls-1" d="m13.45,43.9c-2.49-1.39-6.33-2.08-8.53-1.03-1.88.93-2.83,7.15,7.36,6.9,0,0,3.69,1.67,7.74-.71-.28-.86-.58-1.44-.78-4.28-2.86-2.04-5.35-.46-5.79-.88Z"/>
        <path class="cls-1" d="m57.97,32.31c-.2-3.87-1.4-6.49-3.97-7.33-.57,1.01-5.34,4.16-13.08,3.46,0,0-3.37,9.26-4.17,11.35-.8,2.09,10.92,4.53,12.3,0,1.4-4.53,9.52-.63,8.93-7.48Z"/>
      </g>
      <path class="cls-1" d="m32.18,52.08c-13.91,0-25.18,2.65-25.18,5.92h50.37c0-3.27-11.28-5.92-25.18-5.92Z"/>
    </g>
  </g>
</svg>