<?xml version="1.0" encoding="UTF-8"?>
<svg id="_图层_2" data-name="图层 2" xmlns="http://www.w3.org/2000/svg" viewBox="0 0 49.52 58">
  <defs>
    <style>
      .cls-1 {
        fill: #1677ff;
      }
    </style>
  </defs>
  <g id="_图层_1-2" data-name="图层 1">
    <g>
      <path class="cls-1" d="m24.44,58c-4.12,0-8.42-1.08-12.62-3.59C-.31,47.18-1.97,35.85,1.77,27.84c3.07-6.58,9.14-10.02,14.43-8.18,6.49,2.26,8.05,6.89,8.41,9.44.6,4.29-1.31,9.05-4.54,11.31-1.77,1.24-4.22.81-5.46-.96-1.24-1.77-.59-3.94.96-5.46,3.14-3.07,1.18-7.05-1.94-6.94-2.21.08-3.66,1.46-4.9,3.51-2.17,3.59-1.66,11.5,7.12,17.12,8.74,5.59,18.54,1.24,23.08-5.3,5.03-7.23,3.19-15.44-4.91-21.94-1.69-1.35-1.96-3.82-.6-5.51,1.36-1.69,3.82-1.96,5.51-.6,13.76,11.05,12.07,24.42,6.44,32.52-4.44,6.39-12.28,11.14-20.91,11.14Z"/>
      <circle class="cls-1" cx="11.93" cy="4.61" r="2.64"/>
      <path class="cls-1" d="m33.21,0c-.45.67-.72,1.47-.72,2.34,0,2.3,1.87,4.17,4.17,4.17,1.89,0,3.49-1.26,3.99-2.99l-7.44-3.52Z"/>
      <path class="cls-1" d="m25.66.99l2.7,6.17c.08.18.23.32.41.4l5.67,2.34c.63.26.63,1.16,0,1.41l-5.87,2.38c-.19.08-.34.23-.42.42l-2.44,5.94c-.26.63-1.15.63-1.41,0l-2.41-5.91c-.08-.19-.23-.34-.42-.42l-5.95-2.43c-.63-.26-.64-1.14-.01-1.41l5.47-2.37c.17-.07.31-.21.39-.37l2.92-6.18c.28-.59,1.13-.58,1.39.02Z"/>
    </g>
  </g>
</svg>