<?xml version="1.0" encoding="UTF-8"?>
<svg id="_图层_2" data-name="图层 2" xmlns="http://www.w3.org/2000/svg" viewBox="0 0 57.92 57.92">
  <defs>
    <style>
      .cls-1 {
        fill: #1677ff;
      }
    </style>
  </defs>
  <g id="_图层_1-2" data-name="图层 1">
    <path class="cls-1" d="m.55,53.15C.19,52.79,0,52.3,0,51.79v-12.76c0-.5.2-.99.55-1.35.36-.36.84-.56,1.34-.56,1.64.02,3.26.46,4.67,1.3v1.25s6.45,0,6.45,0l-5.31-5.35c-1.49,1.38-3.81,1.33-5.23-.12-1.48-1.5-1.48-3.91,0-5.41l2.83-2.85C-.46,19.92-.4,10.41,5.45,4.47c5.84-5.9,15.36-5.96,21.28-.14l2.57-2.59c.71-.72,1.67-1.12,2.68-1.12s1.97.4,2.68,1.12c1.48,1.5,1.48,3.91,0,5.41l-.12.13,1.6,1.62,1.34-1.35c1.06-1.07,2.51-1.68,4.02-1.68s2.96.6,4.02,1.68l8.05,8.12c2.22,2.25,2.22,5.87,0,8.12l-1.34,1.35,4.02,4.06c2.22,2.25,2.22,5.87,0,8.12l-18.77,18.94c-1.06,1.07-2.51,1.68-4.02,1.68s-2.96-.6-4.02-1.68l-5.04-5.11H6.56s0,1.28,0,1.28c-1.42.84-3.03,1.28-4.67,1.3-.5,0-.99-.2-1.34-.56h0ZM38.82,11.6l10.73,10.82,1.34-1.35c.74-.75.74-1.96,0-2.71l-8.05-8.12c-.35-.36-.84-.56-1.34-.56s-.99.2-1.34.56l-1.34,1.35Zm0,16.24c-1.76-1.78-5.84-2.48-10.59-3.16-.65-.09-1.22-.18-1.67-.25-.62-.09-1.24.12-1.68.57-.43.46-.61,1.1-.48,1.72l.3,1.55c.9,4.72,1.77,8.76,3.4,10.4,1.42,1.43,3.35,2.24,5.36,2.24s3.95-.81,5.36-2.24c2.96-3,2.96-7.82,0-10.82h0ZM8.13,7.18c-4.37,4.44-4.43,11.54-.14,16.06L24.05,7.03c-4.45-4.33-11.55-4.26-15.92.14h0Zm28.01,28.77c-.71.72-1.67,1.12-2.68,1.12s-1.97-.4-2.68-1.12c-.79-.8-1.68-4.99-2.15-7.35,2.41.36,6.63,1.06,7.51,1.94,1.48,1.5,1.48,3.91,0,5.41h0Z"/>
  </g>
</svg>