<?xml version="1.0" encoding="UTF-8"?>
<svg id="_图层_2" data-name="图层 2" xmlns="http://www.w3.org/2000/svg" viewBox="0 0 58 52.46">
  <defs>
    <style>
      .cls-1 {
        fill: #1677ff;
      }
    </style>
  </defs>
  <g id="_图层_1-2" data-name="图层 1">
    <g>
      <path class="cls-1" d="m1.33,46.58l14.21-8.21,4.97-7.67c.44,1.23,1.34,2.24,2.52,2.81l2.19,1.07-4.98,7.76c-.25.39-.59.72-.99.96l-14.85,8.57c-1.43.72-3.18.2-3.98-1.19-.8-1.39-.38-3.16.96-4.05l-.03-.06Z"/>
      <path class="cls-1" d="m45.25,14.1c-3.89,0-7.05-3.16-7.05-7.05s3.16-7.05,7.05-7.05,7.05,3.16,7.05,7.05c0,1.87-.74,3.66-2.07,4.98-1.32,1.32-3.11,2.07-4.98,2.07h0Z"/>
      <path class="cls-1" d="m41.88,20.92c1.13-1.02,1.75-2.49,1.68-4.01l3.26,2.19,6.1-6.68c1.15-1.07,2.94-1.07,4.1-.01,1.16,1.06,1.32,2.83.36,4.08l-7.86,8.6c-1.01,1.1-2.67,1.3-3.91.47l-5.09-3.42,1.37-1.23Z"/>
      <path class="cls-1" d="m35.62,37.41l-11.72-5.7c-.9-.44-1.52-1.31-1.66-2.3-.14-1,.23-1.99.98-2.67l10.37-9.22-6.21-4.1-9.05,2.59c-1.55.33-3.1-.6-3.53-2.13-.44-1.53.38-3.13,1.87-3.68l10.39-2.97c.85-.24,1.76-.1,2.5.39l10.62,7.03c.78.52,1.27,1.37,1.34,2.3.07.93-.3,1.84-.99,2.47l-9.94,8.84,10.65,5.19c.76.38,1.33,1.06,1.57,1.88.24.82.12,1.7-.33,2.43l-8.06,13.04c-.51,1.02-1.54,1.66-2.67,1.67-1.13,0-2.18-.62-2.7-1.63-.52-1.01-.43-2.22.23-3.14l6.35-10.28Z"/>
    </g>
  </g>
</svg>